<?xml version="1.0" encoding="UTF-8"?>
<svg version="1.1" viewBox="0 0 819 819" width="819" height="819" xmlns="http://www.w3.org/2000/svg">
<path transform="translate(401,122)" d="m0 0h32l26 3 20 5 28 10 21 10 17 10 4 3 8-1 25-9 17-4 8-1h26l15 3 16 6 16 8 10 9 5 9 1 4v11l-4 10-10 14-9 8-19 13-9 6 3 7 11 23 6 12 6 18 5 21 3 22v47l-3 25-5 26-8 29-10 27-9 19-8 15-8 13-11 16-11 13-18 20-14 14-14 11-15 10-19 11-16 8-19 8-27 8-20 4-14 1h-19l-24-2-19-5-30-5-17-5-14-6-15-9-15-10-18-11-12-8-14-11-10-11-11-16-10-11-10-13-8-10-7-12-8-16-12-23-10-21-10-35-13-40-4-21-1-11v-27l4 2 5 13 5 15 11 14 5 5 3 1 2-26v-7l-20-11-7-8 1-7 4-5 7-4 4-1h23l2-10 8-23 5-11v-8l-2-5v-8l6-2 13-2 3-9 11-20 2-6-22-12-38-19-22-13-11-8-6-8v-6l2-1 32-3h22l27 7 51 17 13 3h8l12-10 19-11 29-14 18-6 24-6 14-2zm-1 15-27 3-28 7-20 8-16 8-14 8-8 6 1 4 6 4 22 7 27 9 61 19 17 5 7-1 14-7 7-2h19l5-3 7-6 30-18 22-12 3-3-1-4-16-8-15-7-22-8-20-5-19-3-12-1zm-166 89-5 5-4 10 4 3 10 4 11 10 11 9 14 12 15 10 9 3 5 1h9l14-5 12-7 1-4-38-19-19-10-29-14-13-7zm-41 69-4 6-5 15v6l9 3 12 2h6l-1-5-8-16-6-10zm-18 69-1 1-2 21v15l10 5 20 7 21 5 30 4 12 1h39l2-1-1-3-25-11-25-12-20-6-26-13-28-12zm13 96-1 6 5 2 5 1h10l-1-5-3-2-8-2z" fill="#F9FAFB"/>
<path transform="translate(157,155)" d="m0 0 17 2 21 6 19 7 30 10 13 4 7 2 31 11 15 5 7 3 17 5 34 11 38 12 14 4 3 1 19-9 10-3h14l12 6 7 8 5 13 1 5v9l-3 10-9 10-10 6-18 8-11 3h-15l-12-6-8-10-3-8-1-5v-8l3-9 5-10 1-4-5 3-7 11-3 10v17l5 12 8 9 7 4v2l-9-2-10-7-9-7-10-9-14-9-16-9-60-30-23-11-19-10-25-13-42-22-32-17-10-6-1-2 11-2z" fill="#17364B"/>
<path transform="translate(620,289)" d="m0 0 2 2 2 9v27l-6 32-4 14-4 13-7 18-4 9-11 21-18 27-8 10-9 11-14 15-16 16-11 9-11 10-18 13-15 10-15 9-16 9-21 11-29 13-21 7-16 5-37 8-24 3h-13l-12-6-16-12-10-8v-2h26l14-1 32-5 31-7 26-8 22-8 23-10 27-13 24-14 18-12 16-12 11-9 11-10 8-7 13-12 12-13 9-11 11-15 10-15 10-18 10-21 7-16 6-25 3-14z" fill="#264D66"/>
<path transform="translate(627,268)" d="m0 0 5 5 5 13 5 21 1 9v42l-3 22-4 21-8 26-8 20-8 17-14 24-14 21-10 13-9 11-12 13-11 12-8 8-8 7-13 11-17 13-12 8-17 11-26 14-20 9-25 9-17 5-16 3h-10l-21-5-19-7-4-3 21-3 29-7 26-9 29-12 30-15 28-17 20-14 14-11 14-12h2l1-3 8-7 20-20 9-11 11-14 13-18 12-20 9-16 10-22 7-20 7-28 3-18 2-23-1-26-5-22z" fill="#17364B"/>
<path transform="translate(613,159)" d="m0 0h14l14 2 13 4 18 8 9 6 4 6v12l-5 9-9 10-10 9-15 10-26 15-19 10-23 13-23 12-17 10-20 12-26 15-33 17-16 8-19 9-22 9-29 9-23 6-19 4-30 3h-36l-19-4-16-5-5-4v-3l-10-3-25-10-24-10-21-9-5-5 1-3 5-2h16l28 5 51 10 27 5 10 2-4 2-29 13-6 3 3 2 13 3 16 2h21l27-3 26-5 25-7 27-9 22-9 15-7 19-9 42-23 48-28 26-14 22-12 17-9 16-8 24-14 12-9 8-7 7-10-1-6-5-5-5-2h-14l-18 4-10 3-8-1-2-2 1-4 7-5 13-4h3v-2h-20l-16 3-19 5-25 11-23 12-42 24-5 1-6-5 5-5 18-10 15-9 24-13 16-8 17-7 20-6z" fill="#18374D"/>
<path transform="translate(577,389)" d="m0 0 2 1-5 7-5 9-14 18-10 11-1 2h-2l-2 4-17 17-8 7-16 13-18 13-12 8-21 13-29 15-23 10-27 10-22 7-25 6-30 5-19 2h-36l-18-2-6-3-11-13-10-14 3-1 16 3 19 1h22l36-3 26-4 27-6 25-7 31-11 33-15 26-14 20-12 10-7 14-10 12-9 13-11 8-7 10-9 12-12 4-6 9-1z" fill="#227EC5"/>
<path transform="translate(633,255)" d="m0 0 3 1 9 14 10 22 8 24 4 20 2 15v40l-3 22-4 22-7 25-9 26-9 20-10 18-16 24-14 18-12 14-11 12-25 25-17 13-14 9-23 11-24 8-29 6-23 2h-9v-2l27-9 26-12 21-12 17-12 13-10 14-11 13-12 12-11 7-8 7-7 9-11 12-15 12-18 11-18 12-22 10-23 7-19 6-21 4-19 4-31v-30l-2-19-6-24-7-18-6-14z" fill="#17364B"/>
<path transform="translate(529,384)" d="m0 0 11 6-6 8-9 10-8 8-12 9-15 11-18 12-18 10-23 12-24 11-23 9-27 9-28 7-16 3-21 3-31 2h-21l-27-2-24-5-13-4-12-21-6-12-1-6 16 8 10 4 31 6 23 2h38l27-2 36-6 35-9 30-10 24-10 25-12 19-10 19-12 12-8 11-8 10-8z" fill="#28A2F5"/>
<path transform="translate(653,321)" d="m0 0h1l1 12v30l-4 31-5 24-10 30-11 26-11 21-11 18-12 18-10 13-9 11-12 13-4 5h-2l-2 4-16 15-14 12-13 10-15 11-15 10-24 13-21 9-21 7h-3v2l32-3 29-6 13-4 4 1-2 1 1 3 2 1v3h-3v2l-8 2-7 1-1-3-4-2h-5v4l3 2v2l-5 1v2l-15 3-14 1h-19l-24-2-22-6-5-5-3-5v-2l-7 2h-5l-1 3-2-1-1 3-2-2-6-2-8-7v-2l-5 2-5-3v-5l6 1 18 6 14 3h10l20-4 33-11 25-11 23-12 20-13 16-11 10-8 11-9 20-18 8-8 7-8 10-11 11-14 11-15 12-19 12-21 11-24 9-26 4-15 2 3v7l1 7-5 3-2 1 2 5 2 3 1-4h5v-8l4-7-1-8 1-1v-11l2-8 4-2v-36z" fill="#E8EEF0"/>
<path transform="translate(503,372)" d="m0 0 6 1 3 3-4 2v2l-14 11-13 9-16 10-22 12-29 13-36 12-28 7-36 6-29 2h-29l-23-2-25-5-16-4-20-8-17-9-7-6-6-14-6-18-1-9 7 6 10 8 11 7 21 10 21 7 20 5 19 3 28 2h32l25-2 28-4 29-6 27-8 19-7 35-16 20-11 11-6z" fill="#28A2F5"/>
<path transform="translate(672,195)" d="m0 0 2 1-8 10-11 9-15 10-26 14-19 10-25 13-36 20-22 13-26 15-24 13-16 8-19 9-13 6-23 9-27 9-19 5-26 5-27 3h-21l-20-3-12-3v-3l9-4 52-1 23-3 23-6 20-7 18-8 24-13 14-9 5-3 21-3 25-10 11-6 5-4 7-10 4-5 18-10 27-14 22-12 28-13 23-10 18-7 33-13z" fill="#B0C5D3"/>
<path transform="translate(379,567)" d="m0 0 7 1 1 3 8 2 4-4h21l2 3-10-1v2h7l3 5v3l-35 16-21 7-16 5-37 8-24 3h-13l-12-6-16-12-10-8v-2h26l14-1 32-5 31-7 26-8z" fill="#17354A"/>
<path transform="translate(401,122)" d="m0 0h32l26 3 20 5 28 10 21 10 17 10 5 4v2l-11 6-5-2-16-8-15-7-22-8-20-5-19-3-12-1h-30l-27 3-28 7-20 8-16 8-14 8-10 7-4 1-10-5 2-4 5-6 14-9 23-12 20-9 28-8 15-3z" fill="#35A6F2"/>
<path transform="translate(598,417)" d="m0 0h2l2 10 1 7-1 2-1 5-9 16-12 18-9 12-11 14-12 14-23 23-8 7-13 11-16 12-21 14-9 2-3 3-5-2-3-2-8-2v2l-7 3-3 4h-8l-5-2v-3l10-1 2-2 1-4 4-4 17-9 23-14 17-12 13-10 11-10 4-3 6-2 5-6h2l2-4 6-5 3-3 5-2 5-10 9-8 3-5 3-1 2-6 3-3 11-16 2-5h2l2-4 1 2 7-1 1-1-2-2 1-1v-13z" fill="#E8EEF0"/>
<path transform="translate(567,412)" d="m0 0 1 3 6 1-2 5-2 1-4 9-3 2v-2h-2l-1 8-1 2h-3l-1 2-1 1-2 4h-4l-2 6-2 2-7 1-1 5h-2l-2 9-5 4h-3l-1 3-6 4h-3l-1 3h-4l1 3-4 5-3 1-3-1v5l-8 7h-4v2l-5 3-3 3-5 2-1 3h-2l-1 4-15 9-23 13-19 9-11 1v2l-8 2-3 3-9 3-3-1 1-4-6-2h-5l-3 3h-10l1-5-1-3 6-1 1-3 37-14 20-9 20-10 10-6 8-1v-2l9-4h2l2-4 10-6 4-1 1-2h2l2-4 2-2h3l1-3h8l2-7 4-2 2-4 9-7 3-2h3l2-6 11-11h2v-2l5-5 4-2v-3h2l2-4 6-9z" fill="#FBFBFC"/>
<path transform="translate(573,284)" d="m0 0h9l8 3 7 8 4 8 2 8v11l-4 9-8 6-17 8-16 4h-8l-10-3-7-6-5-7-2-5v-13l4-7 10-9 13-8 11-5z" fill="#18384F"/>
<path transform="translate(428,577)" d="m0 0 2 1-2 6-2 1h-10v3l5 1h8l5-5 5-1v-2l10 2 4 3 4-2 3-2h5l-3 3-15 9-23 12-19 9-31 12-19 6-30 7-18 2v-2l10-2 1-4-4-3-26-1-8-6-3-1 3 6-3 1-3-7v-4h15l29-4 36-8 18-6 20-7z" fill="#E8EEF0"/>
<path transform="translate(198,544)" d="m0 0 5 5 11 13 5 2 18 2h36l26-3 27-5 25-6 9-3h3v2l-5 2 1 4-1 2h9l3-3 7 1 4 2 1 3h2l10-2 1-3 2-1h6v-2l9-1-4 3-32 13-24 8-32 8-22 4-20 3-14 1h-21l-5-1 1 3h-2v-4l28-1-1-6-2-1-23-2-10-3-11-11-7-4-4-2v-3h-2v-4l-4-2-3-6z" fill="#E8EEF0"/>
<path transform="translate(539,389)" d="m0 0h2l-1 4-3 7h-2v2l-4 2-3 6-7 5v6h-4v-2l-5 2v3l-6 1-1 3-7 4-7 6-10 6-4 4-5 1v2l-7 4h-2l-2 4-7 1-17 10-15 6-4 4-7 1-6 5-10 2-3 3-4 1-6 1-5 3-19 5-9 3-16 4-8 1-2 2-19 1-2 1-13 1-6 1-10 2 9 2 3 3v2l-5 1h-5l-1-3-3-3v-2h-26l6 2h11l6 3 1 6-1 6h4l2-5 6 1 24 1 6-1v-2l3-1 9 1v-4h14l15-4 10-5 1-1 9-1 3-2 3 1 5-1 1-2 7-1v-2l8-2 10-5 5 1-2 2-25 10-30 10-32 8-21 4-36 4-15 1h-22l-19-1-16-3h-4l1-3 14 1 4-2 2 4h3l-1-3 2-2 1 2 6 3 1 1h6v-2h2v2h7l-5-3-5-2h-5l-3-2-13-2-16-5-3-1-3-5 19 2 1-4-4-1-4 2-2-1v-1l-5-1v-3l-6-1-8-2v-2l-3-1-2-3 1-4 3 6 13 4 24 5 27 2h21l31-2 32-5 25-6 18-5 28-10 21-9 35-17 24-14 12-8 14-10 13-10 10-9 7-7 8-10z" fill="#E8EEF0"/>
<path transform="translate(620,289)" d="m0 0 2 2 2 9v27l-6 32-4 14-4 13-7 18-4 9-11 21-18 27-8 10-9 11-4 3-5-1-2-3h-3l-1-3-2-1-1-5 3-6 15-16 8-10 11-15 10-15 10-18 10-21 7-16 6-25 3-14z" fill="#227FC6"/>
<path transform="translate(223,254)" d="m0 0h8l9 7 12 11 10 8 14 11 11 8 8 3 5 1h20l12-5 21-12 5-3 9 7-4 3-16 9-36 20-6 4-12 4-2-1 2-7 16-7v-1l-15-2-11-4-11-7-13-11-10-9-11-9-9-8-8 1-11 3h-4l9 19 12 22 12 24-2 1-9-1-12-22-15-29-7-14v-6l12-4z" fill="#18394F"/>
<path transform="translate(523,315)" d="m0 0h1v22l3 9 5 5 10 5 7 1h10l11-1 6 9 6 7-2 4-16 8h-8l-15-6-15-8-14-8-16-8-12-7-10-5v-2l18-10 16-8z" fill="#17364B"/>
<path transform="translate(192,534)" d="m0 0 12 2 7 1 43 2 4 1v2h-4v2h2l1 2h13l13 4h9l7 5 6 2v3l3 1-3 2-21 3-11 1h-36l-18-2-6-3-11-13-10-14z" fill="#1D6DAE"/>
<path transform="translate(613,268)" d="m0 0 4 2 3 10h1l6 24-2 29-1 8 6-1v-5l2-3 1-37h1l1 26-3 30-6 28-6 20-8 20-9 19-2-3 1-2-2-16h-2v16l-1 1 3 2-5 3h-5l-2-1-4 5-2 5-9 13-4 4-2 6-3 1-4 6-8 7-3 6-1 4-8 2-1 3-7 6-5 5-4 5-4-1 12-11 16-16 7-8 8-10 7-9 16-24 10-18 5-10 6-15 6-17 4-15 4-18 3-17v-27l-2-9-2 25-1 7h-1v-21l-1-14-1-3-2 1-1 9h-2l-9-12-5-5v-3l10-5z" fill="#E6ECEE"/>
<path transform="translate(225,263)" d="m0 0 5 1 8 7 14 12 11 10 15 11 9 5 13 3 9 1v3l-10 4-13 2h-15l-16-6-11-7-10-9-11-12-6-8v-2l-6-3v-2l-4-1-1-4z" fill="#F8FAFA"/>
<path transform="translate(598,417)" d="m0 0h2l2 10 1 7-1 2-1 5-9 16-12 18-9 12-11 14-12 14-15 15-7 2-2-3-10-1-4 1-1 7-2 2h-6l2-7 11-12 4-3 6-2 5-6h2l2-4 6-5 3-3 5-2 5-10 9-8 3-5 3-1 2-6 3-3 11-16 2-5h2l2-4 1 2 7-1 1-1-2-2 1-1v-13z" fill="#FBFBFB"/>
<path transform="translate(536,468)" d="m0 0 1 2-2 4 2 1-1 2 4 2 5 5h4l-2 5-24 24-11 9-10 9-2-2h-7l-3 2h-13l-14 2v-2h-3l1-4 19-12 13-10 14-11 12-11 8-7z" fill="#2C5D7C"/>
<path transform="translate(610,567)" d="m0 0 1 3 2-1 1 4-9 10-7 8-10 11-14 14-14 11-15 10-19 11-16 8-19 8-27 8h-5l3-2h2l-4-5 1-4h6v2l4 1v3l4-2 11-1v-2h3v-3l-3-1 1-6 15-6 20-10 22-16 10-2 7-8 7-6 11-5 3 1v-2l-2-1 25-25z" fill="#FCFCFC"/>
<path transform="translate(447,237)" d="m0 0h3l-2 5-1 3v12l3 10 7 11 5 5-11 6-11 4h-12l-8-5-4-5-3-6v-14l4-8 9-8 16-8z" fill="#FAFAFB"/>
<path transform="translate(627,268)" d="m0 0 5 5 5 13 5 21 1 9v42l-3 22-4 21-3 11-3 3-10 1-2-8-2 1 9-30 6-28 3-30-1-26-5-22z" fill="#2A5B7A"/>
<path transform="translate(208,272)" d="m0 0 3 1v2l4 2 5 5 7 9 9 10 9 8 12 7 14 5h15l11-1-4 4-1 5h5l-3 2-17 5-5 1h-19l-6-1h-10l-5-2v-1h6l-8-16-15-29-7-14z" fill="#B1C6D3"/>
<path transform="translate(606,360)" d="m0 0 1 2-9 20-12 23-10 16-12 16-11 14-8 8-7 8-17 16-11 9-10 9-19 14-7 5h-2v-2l5-5 5-3 3-3h3v-2l5-2 6-5 1-5 3-1h3l3-5v-2l4-1 1-2 6-3h2l2-6 8-2-1-3 3-6h2l1-5 8-3 3-7 4 1 1-7h6l2-10h4l5-10h2l2-5-6-1-1-2-5 4-6 9-4 5v3h-3l-4 5h-2v2l-8 7-5 5-2 5-9 5-3 3-2-1 7-7 8-7 12-12 1-2h2l2-4 10-11 14-19 7-12-3 1-3 2-3-1h2l1-4 10-2v3h10l2-6 5-7 3-10 2-4zm-94 106 2 1-5 5-2 3-2 6h-8l-1 2-5 3-2 3h-2l-1 3-7 3-8 5-3 3-7 3h-2v2l-6 1 5-4 11-7 12-8 19-14z" fill="#E5ECEE"/>
<path transform="translate(637,287)" d="m0 0 3 2v2h4l2-4 5 18 2 9v56l-1 7-4 4-1 9v8l-1 2 1 7-4 8-1 7h-5l-1 5-4-5 1-6 6-2-2-9v-13l4-25 1-9v-42l-2-13-3-13z" fill="#F8F9FA"/>
<path transform="translate(639,499)" d="m0 0 2 4-2 4-1 13-3 3v-5l-4 4-3 12-6 7-3 11-4 4-2 6-6 9-5 5-4 6-2-1-4 6-8 7-3 3 1 3h-2l-1 2-1-2-11 6h-2l-2 4-7 6-2 3-9 1 36-36 9-11 8-9 12-16 12-18 9-15z" fill="#E6EDEF"/>
<path transform="translate(613,268)" d="m0 0 4 2 3 10h1l6 24-2 29-1 8 6-1v-5l2-3 1-37h1l1 26-3 30-6 28-4 14h-1l1-16 3-12-1-4-3 3-2 8-4 4h-2l2-11 4-15 4-23v-27l-2-9-2 25-1 7h-1v-21l-1-14-1-3-2 1-1 9h-2l-9-12-5-5v-3l10-5z" fill="#E3EBED"/>
<path transform="translate(565,295)" d="m0 0 1 4-1 4v7l3 10 6 8 4 4-17 6h-9l-8-4-6-7-1-7 2-7 5-5 9-7z" fill="#F9FAFB"/>
<path transform="translate(502,545)" d="m0 0h4v2l-7 4 1 5-3 1-1 3-2 1-3 5-24 16-9 2-3 3-5-2-3-2-8-2v2l-7 3-3 4h-8l-5-2v-3l10-1 2-2 1-4 4-1-3 4 5-5 6-3 1-2 5-1 4 4 7-3 6-3 6-2 1 4h2l2 2 4-6v-6l2-3 8-2 2-6 4-1h4v-2z" fill="#FBFBFC"/>
<path transform="translate(555,284)" d="m0 0 2 1-6 4-1 2 3 1-14 9-9 8-3 6v13l6 12-6 1-2 3-2-7v-21l-17 8-19 10-7 4h-2l-1-4-6-1 4-3 28-15 27-16 15-9z" fill="#F1F4F6"/>
<path transform="translate(182,273)" d="m0 0h2l8 16 1 7-5 10-5 16-16-2-1-4 10-30z" fill="#2882C8"/>
<path transform="translate(155,356)" d="m0 0 6 1 13 6v12l-3 25-10-4-8-6v-14z" fill="#2882C8"/>
<path transform="translate(539,389)" d="m0 0h2l-1 4-3 7h-2v2l-4 2-3 6-7 5v6h-4v-2l-5 2v3l-6 1-1 3-7 4-7 6-10 6-4 4-5 1v2l-7 4h-2l-2 4-7 1-17 10-15 6-4 4-7 1-6 5-10 2-3 3-4 1-6 1-5 3-19 5-9 3-16 4-8 1-2 2-19 1-2 1-13 1-5 1-3-3 17-2 26-4 25-6 18-5 28-10 21-9 35-17 24-14 12-8 14-10 13-10 10-9 7-7 8-10z" fill="#E0E8EB"/>
<path transform="translate(448,265)" d="m0 0 3 4 7 10 4 4-11 6-11 4h-12l-8-5-4-5v-2l18-8 13-6z" fill="#B0C5D3"/>
<path transform="translate(311,388)" d="m0 0 5 1 10 11 5 7-8 3h-13l-18-8-20-10v-1l29-1z" fill="#18394F"/>
<path transform="translate(630,361)" d="m0 0 2 1 1 8-1 2 4-2 4 1-1 8-1 13-5 20-3 3-10 1-2-8-2 1 9-30 4-17z" fill="#264D67"/>
<path transform="translate(463,237)" d="m0 0 6 1 7 8 4 11v11l-3 6-6 1-6-3-6-10-2-6v-9l3-7z" fill="#F0F3F5"/>
<path transform="translate(216,215)" d="m0 0 8 4 9 6-2 5-5 10h-2v3l-23 6h-2l1-6 12-22z" fill="#2581C7"/>
<path transform="translate(577,389)" d="m0 0 2 1-5 7-5 9-14 18-4 2h-6l-6 2-3-2v-6l19-19 4-6 9-1z" fill="#28A1F4"/>
<path transform="translate(382,445)" d="m0 0 3 1-7 3-10 4-24 4-1 1h-8v2l-17 2-28 2h-46l-11 3-3-1-5-1-9-1-2-5-14-2-2-2-7-2-3-2v-2l11 3 22 5 20 3 15 1h29l29-2 36-6z" fill="#E6EDEF"/>
<path transform="translate(360,549)" d="m0 0h3v2l-5 2 1 4-1 2h9l3-3 7 1 4 2 1 3h2l10-2 1-3 2-1h6v-2l9-1-4 3-32 13-24 8-7 1 5-5 9-2 6-2 2-2-6-2h-7l-1 3-4-1-6-2-1-3-2-1v-2l2-1-2-2 7-3z" fill="#E9EEF0"/>
<path transform="translate(156,463)" d="m0 0 5 1 7 4 8 3 10 4h11v2l13 2h4l-2-4-2-2 6 1 6 5v2h25l2 1h10l10-1 33-1 3-2-1-3 6-1 1 3 3 1h7l1-4 8 1 3-2h10l8-2h3v2l-21 5-31 5-27 2h-38l-23-2-31-6-16-7-10-5z" fill="#E2E9EC"/>
<path transform="translate(515,146)" d="m0 0 11 3 19 11 5 4v2l-11 6-5-2-16-8-11-6v-3h2v-3z" fill="#2984C9"/>
<path transform="translate(633,295)" d="m0 0h1l1 26-3 30-6 28-4 14h-1l1-16 3-12-1-4-3 3-2 8-4 4h-2l2-11 4-15 3-13 2-1v5l6-1v-5l2-3z" fill="#E2E9EC"/>
<path transform="translate(620,289)" d="m0 0 2 2 2 9v27l-6 32-2 3-1-1-1 3-6-1-1-3 5-16 5-21 2-16z" fill="#2281C9"/>
<path transform="translate(565,315)" d="m0 0 6 9 5 5 2 3-17 6h-9l-8-4-4-5 2-3 20-8h3z" fill="#ADC4D3"/>
<path transform="translate(340,557)" d="m0 0h5l-3 2h-2v2l3 1v3l6 1 4 1 3-3 10 1 2 2-4 4-11 2-5 2-3 1-1-2-16-1-5 1-9-1-10-2-3-3 3-1h9v-2l18 1 5-3 3-5z" fill="#FCFCFC"/>
<path transform="translate(172,493)" d="m0 0 4 5 1 3 5 1 3-1v-2l4-1 6 2 1 2 9 2 3 3v2l9-2 1-2 10 1 9 1 3 3 5 1 17 1-1 2h-21l-27-2-24-5-13-4-4-7z" fill="#2383CC"/>
<path transform="translate(580,294)" d="m0 0 5 2 5 8 3 7v9l-3 5-5-1-5-4-5-9v-12z" fill="#F4F6F7"/>
<path transform="translate(408,499)" d="m0 0 5 1-2 2-25 10-30 10-32 8-14 3-4-1 4-2v-2l3-1 9 1v-4h14l15-4 10-5 1-1 9-1 3-2 3 1 5-1 1-2 7-1v-2l8-2z" fill="#E2E9EC"/>
<path transform="translate(566,408)" d="m0 0h3v2l-5 5-5 6-3 5-4 5v3h-3l-4 5h-2v2l-8 7-5 5-2 5-9 5-3 3-2-1 7-7 8-7 12-12 1-2h2l2-4 10-11zm-54 58 2 1-5 5-2 3-2 6h-8l-1 2-5 3-2 3h-2l-1 3-7 3-8 5-3 3-7 3h-2v2l-6 1 5-4 11-7 12-8 19-14z" fill="#DBE5E9"/>
<path transform="translate(395,485)" d="m0 0h3v2l-6 3v2h-8l-6 3-9 3-36 10-8 1-2 2-19 1-2 1-13 1-5 1-3-3 17-2 26-4 25-6 18-5z" fill="#E0E8EB"/>
<path transform="translate(544,620)" d="m0 0 1 3-5 5-7 3-2 7-5 3-5-1-2-1 3 4-9 5-2 3-13 1-2 7-3-3v-2l-6-1 3-2 16-7 17-9 17-12z" fill="#E5ECEE"/>
<path transform="translate(501,384)" d="m0 0 2 1-3 5-10 6v2l-6 1v2l-10 6v3l-7 1-3 5-9 2-5 3h-2v2l-5 3-8 2-9 4-7 3-4 1-1 2-10 2-1-2 20-8 20-9 22-12 13-8 12-8z" fill="#E2EAEC"/>
<path transform="translate(315,645)" d="m0 0 6 1 18 6 18 4-3 2-9 1-1 3-2-1-1 3-2-2-6-2-8-7v-2l-5 2-5-3z" fill="#E5ECEE"/>
<path transform="translate(156,463)" d="m0 0 5 1 7 4 8 3 10 4h11v2l13 2h4l-2-4-2-2 6 1 6 5v2h25l2 1 9 1v1h-34l-21-3-20-4-16-7-10-5z" fill="#E4EBEE"/>
<path transform="translate(554,466)" d="m0 0 3 1v3h2v5l-9 10h-5l-3-4h-3l-1-3-2-1-1-5h3l9-2z" fill="#1E6CAA"/>
<path transform="translate(594,348)" d="m0 0h5l-1 10-7 11-2 5-7 1-2 5-4 1h-5l4-3 6-4-2-5 3-3h2l1-4 4-2 3-10z" fill="#E6EDEF"/>
<path transform="translate(653,321)" d="m0 0h1l1 12v30l-4 31-5 24-2 3-2-7 4-7-1-8 1-1v-11l2-8 4-2v-36z" fill="#DAE4E8"/>
<path transform="translate(156,356)" d="m0 0 9 3 8 4v2h-2l-1 3h-2l-1 4-7 3-4 14h-1v-18z" fill="#1D6DAD"/>
<path transform="translate(627,268)" d="m0 0 5 5 5 13 5 21v3h-2v8h-3l-2-5h-1l-1-18-5-22z" fill="#1F71B3"/>
<path transform="translate(587,436)" d="m0 0 1 2-4 5-2 5-9 13-4 4-2 6-3 1-4 6-8 7-3 6-1 4-8 2-1 3-7 6-5 5-4 5-4-1 12-11 16-16 7-8 8-10 7-9 16-24z" fill="#DCE6EA"/>
<path transform="translate(382,445)" d="m0 0 3 1-7 3-10 4-24 4-1 1h-8v2l-17 2-9 1h-14l-10-1v-1l29-2 36-6z" fill="#E4EBED"/>
<path transform="translate(497,449)" d="m0 0 3 1-15 11-11 7-18 11-19 10-15 8-4 1 1-3 5-1-1-3 4-2 7-1 3-3 2-3 10-2 3-3 5-2 7-5 1-3 9-1v-2l6-3 8-6z" fill="#E1E9EC"/>
<path transform="translate(502,545)" d="m0 0h4v2l-7 4 1 5-3 1-1 3-3 3-5 2-8 1-1-6 2-3 8-2 2-6 4-1h4v-2z" fill="#FCFCFC"/>
<path transform="translate(622,361)" d="m0 0h2l2 5-3 11-2 15-7 1v-6h-2l1-11h2l2-4h2l2-10z" fill="#FCFCFC"/>
<path transform="translate(600,438)" d="m0 0h2l-2 5-10 17-10 15-15 20-1-3 3-9 7-4 2-7 2-2h3l3-13 4-3h3l3-9 4-4z" fill="#E1E9EC"/>
<path transform="translate(499,405)" d="m0 0 3 1-15 10-25 15-30 15-9 3 3-4 10-5 2-2 8-2 11-6 9-5 1-3h7v-3l13-6 5-4z" fill="#E1E9EC"/>
<path transform="translate(484,653)" d="m0 0 4 1-2 1 1 3 2 1v3h-3v2l-8 2-7 1-1-3-4-2-8-1v-1l20-5z" fill="#E6EDEF"/>
<path transform="translate(524,475)" d="m0 0h2l-1 4-12 11-11 9-14 11-14 10h-2v-2l5-5 5-3 3-3h3v-2l5-2 6-5 1-5 3-1h3l3-5v-2l4-1 1-2 6-3h2z" fill="#E0E8EC"/>
<path transform="translate(556,396)" d="m0 0h2l-2 5-20 20-8 7-13 11-14 10-1-2 3-3 5-2v-3l8-5h2l1-3 2-1 2-5 5-3 4-2 7-6 2-4 8-6 3-1 2-5h2z" fill="#E4EBED"/>
<path transform="translate(172,493)" d="m0 0 4 5 1 3 5 1 3-1v-2l4-1 6 2 1 2 9 2 3 3v2h2v2l-13-2-19-5-4-4-2-4z" fill="#2282CB"/>
<path transform="translate(539,389)" d="m0 0h2l-1 4-3 7h-2v2l-4 2-3 6-7 5v6h-4v-2l-5 2v3l-6 1-1 3-7 4-7 6-10 6v-3l12-8 26-20 12-12 8-10z" fill="#DEE7EA"/>
<path transform="translate(464,246)" d="m0 0 5 1 4 6 1 3v9l-3 3-5-4-3-7v-10z" fill="#183A52"/>
<path transform="translate(342,429)" d="m0 0m-1 1 4 2-25 3-16 1h-32l-28-2v-1l16-1 4 1h48z" fill="#D4E0E5"/>
<path transform="translate(407,244)" d="m0 0h3l-1 6-6 12-1 5-1-2h-2l-1 3-2 1-1 16h-1v-17l4-12 8-11z" fill="#DAE4E8"/>
<path transform="translate(354,657)" d="m0 0h3l3 6 5 6-10-1-17-3 1-3 5-1 1-2z" fill="#FDFDFD"/>
<path transform="translate(555,284)" d="m0 0 2 1-6 4-1 2 3 1-14 9-7 5-1-3-4 1-2-2 20-12z" fill="#DFE8EB"/>
<path transform="translate(269,481)" d="m0 0h31l-2 2-23 2h-38v-1l21-1 1-1z" fill="#D9E3E8"/>
<path transform="translate(617,466)" d="m0 0 4 2-2 7-2 2v6l-3 1-2 5-3 3-2-6h-2l2-4 3-3h2l3-10z" fill="#FDFDFD"/>
<path transform="translate(455,414)" d="m0 0 2 1-4 4-5 2v2l-5 3-8 2-9 4-7 3-4 1-1 2-10 2-1-2 20-8 20-9z" fill="#DDE6EA"/>
<path transform="translate(580,294)" d="m0 0 5 2 5 8 3 7v9h-1l-2-10-3-3v8h-4l-2-6v-7l2-2-1-3-2-1z" fill="#DDE6EA"/>
<path transform="translate(632,526)" d="m0 0h1v6l-6 10-2 2-4 11-6 7h-3l2-6 4-4 4-13 9-9z" fill="#EFF3F4"/>
<path transform="translate(605,492)" d="m0 0 2 1v3h-2v6h-6l-3 4h-4v2l-5 2v-4h2l2-5 4-1 2-5 3-2z" fill="#FDFDFD"/>
<path transform="translate(158,447)" d="m0 0 20 9 3 1 1 7-9-3-11-7-4-5z" fill="#2073B3"/>
<path transform="translate(215,530)" d="m0 0 5 3 4 3 5 1v1h-18l-16-3h-4l1-3 14 1 4-2 2 4h3l-1-3z" fill="#E3EBED"/>
<path transform="translate(393,664)" d="m0 0 6 1-1 2-3 1-1 4 14 1v3h-12l-13-2 4-3 2-5z" fill="#FCFCFC"/>
<path transform="translate(304,317)" d="m0 0h2v2l2 1v2l2 1-10 5-9 2 1-7z" fill="#2B5F82"/>
<path transform="translate(633,255)" d="m0 0 3 1 9 14 2 5-1 6-3 1-7-17-3-7z" fill="#265677"/>
<path transform="translate(214,528)" d="m0 0h7l4 2 7 1 6 3 2 3-8-1-1-1-1 2h-6l-4-3-4-2z" fill="#FDFDFD"/>
<path transform="translate(221,465)" d="m0 0 1 2 4 1 2 2-1 5h-6l-10-4v-5z" fill="#ECF1F2"/>
<path transform="translate(192,534)" d="m0 0 12 2 7 1-4 1-1 6-2 4-2 1-10-14z" fill="#2281C9"/>
<path transform="translate(524,314)" d="m0 0 2 2 1 12 6 12-6 1-2 3-2-7v-15z" fill="#D8E3E8"/>
<path transform="translate(543,213)" d="m0 0h5l3 4-1 6-4 3-4-1-2-2v-6z" fill="#183A51"/>
<path transform="translate(322,524)" d="m0 0h17v2l-15 4-14 3-4-1 4-2v-2l3-1 9 1z" fill="#E4EBEE"/>
<path transform="translate(528,221)" d="m0 0 5 1 2 3-1 6-4 3-5-2-1-1v-6z" fill="#183A53"/>
<path transform="translate(560,205)" d="m0 0h6l3 3-1 6-3 3-5-1-3-4 2-6z" fill="#193B52"/>
<path transform="translate(652,466)" d="m0 0 1 4v4l-2 6-1 11-4 2-3 6h-3l2-6 8-21z" fill="#DFE7EB"/>
<path transform="translate(551,502)" d="m0 0h2v2l4-1-2 4-8 9-1-2-4-1 1-5 5-5z" fill="#E6EDEF"/>
<path transform="translate(380,300)" d="m0 0h5l4 5-1 5-2 2h-5l-3-3v-7z" fill="#18394F"/>
<path transform="translate(474,249)" d="m0 0 3 2 2 9v10l-2 4h-5l-3-3v-2h4l1-5 1-1v-7z" fill="#F8F9FA"/>
<path transform="translate(609,395)" d="m0 0 4 1 1 6-4 11-7 1-1 2-1-4 2-2 2 1 2-4v-10h2z" fill="#FDFDFD"/>
<path transform="translate(351,315)" d="m0 0 5 2 1 1v7l-3 3-5-1-2-2v-7z" fill="#18364B"/>
<path transform="translate(491,483)" d="m0 0 2 1-4 5h-2l-1 3-7 3-8 5-3 3-7 3h-2v2l-6 1 5-4 11-7 12-8z" fill="#DEE7EB"/>
<path transform="translate(554,480)" d="m0 0 2 1-4 4-3 6-1 4-8 2-1 3-7 6-5 5-4 5-4-1 12-11 16-16z" fill="#DCE5E9"/>
<path transform="translate(544,620)" d="m0 0 1 3-5 5-7 3-2 7-5 3-5-1 2-5 17-12z" fill="#E6ECEF"/>
<path transform="translate(366,308)" d="m0 0 6 1 1 2v6l-3 3-5-1-2-2v-6z" fill="#18374C"/>
<path transform="translate(639,499)" d="m0 0 2 4-2 4-1 13-3 3v-5l-7 6-1-2 11-20z" fill="#E0E8EB"/>
<path transform="translate(172,496)" d="m0 0 3 4 3 3 24 6-1 5-5 1v-2l-5-1v-3l-6-1-8-2v-2l-3-1-2-3z" fill="#E0E8EC"/>
<path transform="translate(511,229)" d="m0 0 5 1 2 2-1 6-2 3h-5l-2-2v-7z" fill="#183A52"/>
<path transform="translate(335,323)" d="m0 0 4 1 3 4-1 5-3 2-5-1-1-1v-7z" fill="#193B53"/>
<path transform="translate(431,671)" d="m0 0h5l1 5-7 1h-19l4-2 3 1 1-3 2-1h10z" fill="#FDFDFD"/>
<path transform="translate(314,385)" d="m0 0h6l-3 3 7 3 2 4v5l-11-11-11 1v-2l-3-2z" fill="#C7D6DE"/>
<path transform="translate(319,330)" d="m0 0 5 1 2 2-1 6-3 3-4-1-2-3 1-6z" fill="#193E59"/>
<path transform="translate(257,468)" d="m0 0 6 1 4 4-1 3-2 1h-8l-2-1 1-6z" fill="#ECF1F2"/>
<path transform="translate(283,387)" d="m0 0h21v3h-31l-2-2z" fill="#FCFCFC"/>
<path transform="translate(620,289)" d="m0 0 2 2 2 9v14h-5z" fill="#289FF1"/>
<path transform="translate(556,396)" d="m0 0h2l-2 5-20 20-6 4 2-4 7-7 2-4 8-6 3-1 2-5h2z" fill="#DAE4E8"/>
<path transform="translate(136,387)" d="m0 0h5v3l10 8 6 3v3l5 1 10 6-1 2-15-8-13-10-7-7z" fill="#DFE7EB"/>
<path transform="translate(577,396)" d="m0 0h5l1 6-8 3-2 5-5 1 5-9z" fill="#FDFDFD"/>
<path transform="translate(636,397)" d="m0 0 2 3v7l1 7-5 3-4 3 4-16z" fill="#DFE7EB"/>
<path transform="translate(616,168)" d="m0 0h14l6 1v2l-13 4h-2l-2-4z" fill="#D8E2E7"/>
<path transform="translate(253,606)" d="m0 0 4 2 14 9 2 2-3 1-1 3-6-4-2-7-7-2z" fill="#E2EAED"/>
<path transform="translate(496,500)" d="m0 0 1 3-13 10-10 7h-2v-2l5-5 5-3 3-3h3v-2l5-2z" fill="#DBE5E9"/>
<path transform="translate(627,268)" d="m0 0 5 5 5 13 2 9-1 4-2-4v-5l-3-1v-6l-1-4h-2l-3-8z" fill="#296B99"/>
<path transform="translate(605,397)" d="m0 0h2l1 10-2 6-4-1-4 3 3-9z" fill="#E3EAED"/>
<path transform="translate(464,260)" d="m0 0 4 5 5 2v2h-4l3 4 3 2-7-1-5-5-2-4 2-1z" fill="#DDE6EA"/>
<path transform="translate(407,246)" d="m0 0h1v6l-6 11h-3v-6z" fill="#F7F9F9"/>
<path transform="translate(475,246)" d="m0 0 3 4 2 7v11h-1l-3-17-1-1 1 13-2 1-2-11-3-6z" fill="#D9E3E8"/>
<path transform="translate(606,360)" d="m0 0 1 2-9 20-4 8-2-1 1-5 5-7 3-10 2-4z" fill="#DCE5E9"/>
<path transform="translate(637,287)" d="m0 0 3 2v2h4l2-4 2 9-4-3-2 8v6l-2-4-3-13z" fill="#DBE5E9"/>
<path transform="translate(406,553)" d="m0 0h6l-4 3-22 9h-2l1-3 9-2 1-3 2-1h6v-2z" fill="#D9E3E8"/>
<path transform="translate(390,538)" d="m0 0 3 1-4 3-6 1v2l-11 3-2 2h-6v-2z" fill="#DBE5E9"/>
<path transform="translate(188,449)" d="m0 0 11 3 12 3 1 2-7 1-6-2-8-3-3-2z" fill="#E0E8EB"/>
<path transform="translate(382,445)" d="m0 0 3 1-7 3-10 4-11 1 2-3z" fill="#E0E8EB"/>
<path transform="translate(490,563)" d="m0 0 3 1-15 11h-2l2-4 2-5 5-2z" fill="#DFE8EB"/>
<path transform="translate(485,380)" d="m0 0h5l-3 2-22 12-7 3 2-4 19-9z" fill="#DAE4E8"/>
<path transform="translate(198,544)" d="m0 0 5 5 11 13 2 2-5-1-4-2v-3h-2v-4l-4-2-3-6z" fill="#DEE7EB"/>
<path transform="translate(507,422)" d="m0 0 2 1-4 5-7 4-7 6-10 6v-3l12-8 13-10z" fill="#DBE5E9"/>
<path transform="translate(495,238)" d="m0 0h5l3 4-1 5-4 1-4-7z" fill="#1C425D"/>
<path transform="translate(624,265)" d="m0 0h3l4 16 2 12-2-1-4-17-3-3z" fill="#D7E2E8"/>
<path transform="translate(448,511)" d="m0 0 2 1-3 3h-2v3l-9 1v2l-7 3-1 1h-5l4-3z" fill="#DFE7EB"/>
<path transform="translate(354,470)" d="m0 0m-3 1h3v2l-21 5h-3l2-4 4-1h7z" fill="#DFE7EB"/>
<path transform="translate(501,384)" d="m0 0 2 1-3 5-10 6v2l-6 1v2l-4 1-1-2 11-7z" fill="#DAE4E9"/>
<path transform="translate(304,509)" d="m0 0h6l-1 2-7 2-13 1-5 1-3-3 17-2z" fill="#DDE6EA"/>
<path transform="translate(156,463)" d="m0 0 5 1 7 4 8 3 10 4v2l-5-1-12-5-12-6z" fill="#D8E2E7"/>
<path transform="translate(597,349)" d="m0 0 1 3-6 10-4 1 1-5 4-6z" fill="#289EEF"/>
<path transform="translate(161,448)" d="m0 0 5 1 11 5 6 2 1 2v6l-1 1h-5l-1-2 5 1-1-7-6-1-14-7z" fill="#DDE6EA"/>
<path transform="translate(444,437)" d="m0 0v3l-19 9-2-1 3-3 10-5 2-2z" fill="#DCE5E9"/>
<path transform="translate(456,395)" d="m0 0m-2 1h2v2l-26 12h-2l1-3 13-5 7-4z" fill="#D9E3E8"/>
<path transform="translate(587,360)" d="m0 0 1 3 5-2-2 5-5 5h-3l1-8z" fill="#B1C6D3"/>
<path transform="translate(428,577)" d="m0 0 2 1-2 6-2 1h-10v-2z" fill="#E3EAED"/>
<path transform="translate(423,410)" d="m0 0 4 1-24 8-8 2 1-3 14-4z" fill="#DBE4E9"/>
<path transform="translate(245,472)" d="m0 0 4 3v6h-2l-1-3-9 1-2-4 9-2z" fill="#ECF1F2"/>
<path transform="translate(354,452)" d="m0 0 4 1-2 2-12 2-1 1h-8l-2-2z" fill="#DBE5E9"/>
<path transform="translate(237,481)" d="m0 0h10l2 1 9 1v1h-29v-2z" fill="#ECF1F2"/>
<path transform="translate(649,232)" d="m0 0 2 1-2 3h-2l-1 3-5 2-2 2-8 1 3-3z" fill="#DCE5E9"/>
<path transform="translate(535,518)" d="m0 0h4v3l2 1-7 6v-2l-3-3 2-4z" fill="#E8EEF0"/>
<path transform="translate(635,517)" d="m0 0 1 4-3 5-3 7-2 1 2-12z" fill="#FDFDFD"/>
<path transform="translate(526,431)" d="m0 0 1 2h-3v2h-2v2h-2v3l-6 3-3-1 5-5 6-5z" fill="#279AEA"/>
<path transform="translate(446,567)" d="m0 0 2 1-3 3h-3l-1 3-3 2h-3l-2 4-3 1v-4l5-4z" fill="#D8E2E7"/>
<path transform="translate(356,571)" d="m0 0 9 1-4 2-13 4-3-1 5-4z" fill="#DAE4E9"/>
<path transform="translate(151,431)" d="m0 0 11 6 14 7-4 1-16-8-5-4z" fill="#DDE6EA"/>
<path transform="translate(464,426)" d="m0 0m-1 1 3 2-20 10v-3l11-6z" fill="#DEE6EA"/>
<path transform="translate(479,328)" d="m0 0 2 4v2l4 1-5 3h-2l-1-4-6-1 4-3z" fill="#E0E8EB"/>
<path transform="translate(364,656)" d="m0 0 2 1 2 9 3 4-4-1-3-5-4-2-1-4z" fill="#FDFDFD"/>
<path transform="translate(567,465)" d="m0 0h1v5l-4 2-4 6-5 2 3-5 7-9z" fill="#E2EAED"/>
<path transform="translate(516,434)" d="m0 0 1 3-10 8-7 4 1-4 5-3h2v-3z" fill="#DDE6EA"/>
<path transform="translate(134,386)" d="m0 0 2 1 1 9 5 15v2h-2l-5-12z" fill="#DBE4E9"/>
<path transform="translate(613,337)" d="m0 0 1 3-5 17-2 3 1-12v-5l4-1z" fill="#D9E3E8"/>
<path transform="translate(447,237)" d="m0 0h3l-2 5-2 11h-1v-10l-7-1 4-3z" fill="#D1E0E8"/>
<path transform="translate(446,670)" d="m0 0h7v2l1 2-13 2 1-5z" fill="#FCFCFC"/>
<path transform="translate(324,506)" d="m0 0 4 1-5 4h-14l1-2z" fill="#E3EAED"/>
<path transform="translate(426,489)" d="m0 0h10l-4 3-13 6v-3l5-1-1-3z" fill="#DDE6EA"/>
<path transform="translate(158,447)" d="m0 0 19 9v1l-7-1-5-3v2l-4-2-3-4z" fill="#286D9D"/>
<path transform="translate(566,408)" d="m0 0h3v2l-5 5-5 6-3 5-4 4-2-1 11-14z" fill="#D9E3E8"/>
<path transform="translate(518,391)" d="m0 0 3 1-13 10-3 1 1-4 4-4z" fill="#DCE5EA"/>
<path transform="translate(274,352)" d="m0 0 2 1-9 6h-3v2l-6 1v-3z" fill="#DEE7EA"/>
<path transform="translate(356,296)" d="m0 0 2 1-6 7-7 2-2 1-3-2z" fill="#DCE5EA"/>
<path transform="translate(214,214)" d="m0 0h6l4 3 3 1v2l5 1 3 3-1 3-5-4-12-7-3-1z" fill="#DCE5E9"/>
<path transform="translate(538,497)" d="m0 0h2l-1 3-7 6-5 5-4 5-4-1 12-11z" fill="#D5E0E6"/>
<path transform="translate(299,319)" d="m0 0 2 1-4 9-6 1 1-7z" fill="#2281C9"/>
<path transform="translate(581,302)" d="m0 0 5 5v9l-3-1-2-6z" fill="#ADC4D2"/>
<path transform="translate(414,477)" d="m0 0 2 1-9 6-2 2h-7l-1-2z" fill="#DDE6EA"/>
<path transform="translate(322,474)" d="m0 0 8 2v2l-8 2h-8l1-2h6z" fill="#E6EDEF"/>
<path transform="translate(478,443)" d="m0 0h2l-1 4-7 2v2l-7 4-2-1 5-5z" fill="#E3EAED"/>
<path transform="translate(312,527)" d="m0 0 9 1v2l-11 3-4-1 4-2v-2z" fill="#E2EAED"/>
<path transform="translate(408,499)" d="m0 0 5 1-2 2-15 6 2-4z" fill="#DDE6EA"/>
<path transform="translate(445,481)" d="m0 0 4 1-10 6-5 1 5-7z" fill="#E5ECEE"/>
<path transform="translate(191,475)" d="m0 0h6v2l8 2v2l-17-3-2-2z" fill="#E1E9EC"/>
<path transform="translate(386,461)" d="m0 0 3 2-19 6h-2v-2l5-3z" fill="#DDE6EA"/>
<path transform="translate(304,460)" d="m0 0h6l-1 3h-14l-10-1v-1z" fill="#D5E0E6"/>
<path transform="translate(497,449)" d="m0 0 3 1-15 11-3 1 1-3 12-9z" fill="#DBE5E9"/>
<path transform="translate(346,319)" d="m0 0h1l2 7 4 3-4 1-5-1-2 2-1-5 4-3z" fill="#DBE5E9"/>
<path transform="translate(173,413)" d="m0 0h5l8 4 11 4v2l-10-3-14-6z" fill="#DAE4E8"/>
<path transform="translate(317,389)" d="m0 0 6 1 3 5v5l-9-9z" fill="#DFE8EB"/>
<path transform="translate(541,195)" d="m0 0 2 1-3 3-6 3-4 3h-5l3-3z" fill="#DCE6EA"/>
<path transform="translate(425,545)" d="m0 0 4 1-15 7h-2v-2l6-5z" fill="#DBE4E9"/>
<path transform="translate(632,526)" d="m0 0h1v6l-6 10-3 2 1-9 5-3z" fill="#EEF2F3"/>
<path transform="translate(600,438)" d="m0 0h2l-2 5-6 10-2-4 2-4 4-4z" fill="#DCE5E9"/>
<path transform="translate(648,297)" d="m0 0 2 4 3 13v6l-2-1-3-10z" fill="#D5E0E6"/>
<path transform="translate(204,236)" d="m0 0 1 2-1 4 1 3 3 2-9 2 1-6z" fill="#42A9EF"/>
<path transform="translate(357,656)" d="m0 0h7l-4 3 1 3 4 2 2 5-5-2-4-6z" fill="#ECF1F2"/>
<path transform="translate(421,431)" d="m0 0 2 1-4 3-4 1-1 2-10 2-1-2z" fill="#DCE5E9"/>
<path transform="translate(274,619)" d="m0 0 8 2v2l-3 1-2-1 3 6-3 1-3-7z" fill="#E9EFF1"/>
<path transform="translate(478,401)" d="m0 0h2l-1 3-5 4v2h-7l1-3z" fill="#E4EBEE"/>
<path transform="translate(487,277)" d="m0 0 1 3-3 3-3 5-3 2h-5l5-4z" fill="#DBE4E9"/>
<path transform="translate(216,244)" d="m0 0 3 1-9 4-12 1 1-2z" fill="#D6E1E6"/>
<path transform="translate(464,470)" d="m0 0m-1 1m-1 1 1 3-14 7 2-4 6-3z" fill="#DFE7EB"/>
<path transform="translate(507,372)" d="m0 0 5 1 2 1-2 4-1 3h-2v2l-6 1 3-4h2v-2l3-3z" fill="#D9E3E8"/>
<path transform="translate(565,295)" d="m0 0 1 4-1 4v11l-2-2v-12l-4-1 4-3z" fill="#D7E2E7"/>
<path transform="translate(613,268)" d="m0 0 3 1v6l-5-1-1-2-3-1z" fill="#B1C6D3"/>
<path transform="translate(560,185)" d="m0 0h2v4h-4l-2 3h-7l3-3z" fill="#DAE4E9"/>
<path transform="translate(544,620)" d="m0 0 1 3-5 5-6 2-2-1z" fill="#DDE6EA"/>
<path transform="translate(561,616)" d="m0 0 1 2-3 6-10 1-1-2 12-4z" fill="#ECF1F2"/>
<path transform="translate(577,452)" d="m0 0v3l-6 9-5 2 2-4 6-8z" fill="#DFE7EB"/>
<path transform="translate(594,348)" d="m0 0h5l-1 10-5 3 2-5 2-6-5 3 1-4z" fill="#D5E0E6"/>
<path transform="translate(433,243)" d="m0 0 2 1-3 5-5 1-1 2-4-1 4-4z" fill="#DFE7EB"/>
<path transform="translate(483,545)" d="m0 0 2 1v7l-4 1-3-4 3-1z" fill="#FBFBFB"/>
<path transform="translate(142,414)" d="m0 0 2 3 7 14h-3l-4-6-2-4z" fill="#DBE5E9"/>
<path transform="translate(538,315)" d="m0 0h1v8l9 1-3 2-6 2-2-5z" fill="#DEE7EB"/>
<path transform="translate(183,318)" d="m0 0h1v6h-7l-7-2-4-1 1-2 16 3z" fill="#D8E2E7"/>
<path transform="translate(624,537)" d="m0 0h2l-1 5-5 10-1-3 3-10z" fill="#FDFDFD"/>
<path transform="translate(555,355)" d="m0 0 10 1v1l-6 1h-10l-7-1v-1z" fill="#D1DDE3"/>
<path transform="translate(633,255)" d="m0 0 3 1 4 6v2l-4 1-3-7z" fill="#215173"/>
<path transform="translate(395,485)" d="m0 0h3v2l-6 3v2l-6-1 1-3z" fill="#E3EAED"/>
<path transform="translate(591,288)" d="m0 0 4 1v2h2l5 11v5l-2-4-6-11z" fill="#D7E1E7"/>
<path transform="translate(634,283)" d="m0 0h2l3 12-1 4-2-4v-5l-3-1z" fill="#2B6287"/>
<path transform="translate(485,507)" d="m0 0m-1 1m-1 1m-1 1m-1 1m-1 1 1 3-7 5h-2v-2l5-5z" fill="#E1E9EC"/>
<path transform="translate(582,468)" d="m0 0 1 3-6 8h-1v-7z" fill="#DBE5E9"/>
<path transform="translate(463,452)" d="m0 0 2 1-4 6h-9l4-3z" fill="#DBE5E9"/>
<path transform="translate(550,430)" d="m0 0 3 2-1 2h-3l-4 5h-3v-2h2l2-4z" fill="#E1E9EC"/>
<path transform="translate(304,317)" d="m0 0h2v2l2 1v2l2 1-7 2-1-5z" fill="#264E68"/>
<path transform="translate(213,266)" d="m0 0 3 1-4 3 1 5h-2v-2l-4-1-1-4z" fill="#DDE6EA"/>
<path transform="translate(407,244)" d="m0 0h3l-1 6-2-3-7 10-2-1 8-11z" fill="#C8D6DF"/>
<path transform="translate(407,246)" d="m0 0h1v6l-3 6-2-3-1-3z" fill="#EBF0F2"/>
<path transform="translate(390,538)" d="m0 0 3 1-4 3-6 1v2l-4-1 1-2z" fill="#DDE6EA"/>
<path transform="translate(400,439)" d="m0 0 3 1-9 5h-5l-1-2z" fill="#D9E3E8"/>
<path transform="translate(598,377)" d="m0 0 1 3-5 10-2-1 1-5z" fill="#DFE7EB"/>
<path transform="translate(475,246)" d="m0 0 3 4 2 7v11h-1l-3-17-2-4z" fill="#DBE4E9"/>
<path transform="translate(491,483)" d="m0 0 2 1-4 5h-2l-1 3-4-1 5-5z" fill="#E2EAED"/>
<path transform="translate(643,271)" d="m0 0 3 1 1 3-1 6-3 1-1-7 2-2-2-1z" fill="#244D6A"/>
<path transform="translate(670,216)" d="m0 0v3l-7 8h-5l5-5z" fill="#D7E1E7"/>
<path transform="translate(657,450)" d="m0 0 2 4-1 7-2 2-2-1z" fill="#DEE6EA"/>
<path transform="translate(608,357)" d="m0 0h3l1 3h2v4l-6-1-1-3z" fill="#28A0F2"/>
<path transform="translate(567,355)" d="m0 0 7 1 2 4v5l-3-3-3-5z" fill="#D6E1E6"/>
<path transform="translate(232,225)" d="m0 0v3l-6 12h-1v-6l5-8z" fill="#58B0EB"/>
<path transform="translate(451,459)" d="m0 0 3 1-12 7-2-1 3-3z" fill="#E1E9EC"/>
<path transform="translate(499,405)" d="m0 0 3 1-12 8v-3l5-4z" fill="#D9E3E8"/>
<path transform="translate(159,404)" d="m0 0 10 5 3 2-1 2-12-6z" fill="#DDE6EA"/>
<path transform="translate(463,237)" d="m0 0 6 1 1 2-8 1-2 4h-2l2-5z" fill="#D7E2E7"/>
<path transform="translate(457,562)" d="m0 0h6l-3 5-5-1z" fill="#FDFDFD"/>
<path transform="translate(406,532)" d="m0 0 2 1-2 2-10 4-3-1 3-2z" fill="#DBE4E9"/>
<path transform="translate(580,375)" d="m0 0h2l-2 5-4 1h-5l4-3z" fill="#D6E1E6"/>
<path transform="translate(630,279)" d="m0 0h2l2 4v12h-1z" fill="#217EC4"/>
<path transform="translate(588,266)" d="m0 0 2 1-3 4-8 3-3-1z" fill="#D6E3EA"/>
<path transform="translate(680,205)" d="m0 0h1v5l-8 6-2-1z" fill="#D6E1E6"/>
<path transform="translate(482,489)" d="m0 0 2 1-5 5-6 3-3-1 11-7z" fill="#D8E2E7"/>
<path transform="translate(432,426)" d="m0 0h3v2l-9 4-4 1 1-3z" fill="#E1E9EC"/>
<path transform="translate(575,282)" d="m0 0h8l2 1v2h-12l-8 1 1-2z" fill="#D8E2E7"/>
<path transform="translate(188,449)" d="m0 0 11 3-1 2h-6l-4-3z" fill="#DEE7EA"/>
<path transform="translate(507,422)" d="m0 0 2 1-4 5-7 4-2 1 2-4z" fill="#D7E2E7"/>
<path transform="translate(579,387)" d="m0 0h2l-1 3-4 1-5 3-3-1h2l1-4 5-1z" fill="#BECFDA"/>
<path transform="translate(437,349)" d="m0 0 2 1-5 4-4 1-4-1z" fill="#D9E3E8"/>
</svg>
